<svg width="20" height="20" viewBox="0 0 20 20" fill="none" xmlns="http://www.w3.org/2000/svg">
<g id="Group 1541">
<path id="Vector" d="M10 0C4.47584 0 0 4.47888 0 10C0 15.5211 4.47888 20 10 20C15.5242 20 20 15.5211 20 10C20 4.47888 15.5211 0 10 0ZM10 17.7818C5.70951 17.7818 2.22121 14.2935 2.22121 10.003C2.22121 5.71255 5.70951 2.22425 10 2.22425C14.2905 2.22425 17.7788 5.71255 17.7788 10.003C17.7788 14.2935 14.2874 17.7818 10 17.7818Z" fill="#0F1F3C"/>
<path id="Vector_2" d="M11.5505 6H9V10.5803L13.1986 14L15 12.5328L11.5505 9.72331V6Z" fill="#0F1F3C"/>
</g>
</svg>
