<svg width="14" height="14" viewBox="0 0 14 14" fill="none" xmlns="http://www.w3.org/2000/svg">
<g id="bitcoin-btc-logo 1" clip-path="url(#clip0_3_877)">
<g id="Layer_x0020_1">
<g id="_1421344023328">
<path id="Vector" d="M13.7903 8.69358C12.8553 12.4436 9.05669 14.7258 5.30579 13.7907C1.55646 12.8558 -0.725997 9.05735 0.209419 5.30763C1.14401 1.55718 4.94262 -0.725192 8.69236 0.209708C12.443 1.14461 14.7253 4.94344 13.7902 8.69365L13.7903 8.69358H13.7903Z" fill="#F7931A"/>
<path id="Vector_2" d="M10.087 6.00269C10.2263 5.07115 9.51703 4.57041 8.54712 4.23636L8.86177 2.9745L8.09355 2.7831L7.78725 4.01174C7.58529 3.96137 7.37789 3.91392 7.17175 3.86687L7.48027 2.63012L6.71253 2.43872L6.39771 3.70017C6.23059 3.66213 6.06644 3.62452 5.90718 3.5849L5.90807 3.58093L4.84868 3.31641L4.64432 4.13683C4.64432 4.13683 5.21428 4.26746 5.20226 4.2755C5.51335 4.35314 5.56961 4.55905 5.56027 4.72225L5.20185 6.15981C5.22328 6.16525 5.25106 6.17312 5.28172 6.18544C5.25609 6.17908 5.22882 6.17213 5.20052 6.16535L4.69815 8.17917C4.66013 8.27367 4.56363 8.41549 4.34613 8.36164C4.35383 8.37279 3.78778 8.22231 3.78778 8.22231L3.40637 9.10158L4.40609 9.35077C4.59207 9.39741 4.77432 9.4462 4.9538 9.49208L4.6359 10.7684L5.40323 10.9598L5.71805 9.69703C5.92768 9.75393 6.13111 9.80642 6.33027 9.85589L6.01651 11.1127L6.78477 11.3041L7.10263 10.0302C8.41261 10.2781 9.39761 10.1781 9.81221 8.99339C10.1463 8.03953 9.79558 7.48935 9.1064 7.13057C9.60836 7.01482 9.98645 6.68471 10.0873 6.0028L10.087 6.00263L10.087 6.00269ZM8.33178 8.46367C8.09437 9.41752 6.48819 8.9019 5.96744 8.7726L6.38929 7.08168C6.91001 7.21166 8.57991 7.46889 8.33182 8.46367H8.33178ZM8.56937 5.98887C8.35279 6.8565 7.01595 6.41571 6.58229 6.30762L6.96476 4.77406C7.39842 4.88214 8.79497 5.08388 8.56943 5.98887H8.56937Z" fill="white"/>
</g>
</g>
</g>
<defs>
<clipPath id="clip0_3_877">
<rect width="14" height="14" fill="white"/>
</clipPath>
</defs>
</svg>
