<svg width="24" height="22" viewBox="0 0 24 22" fill="none" xmlns="http://www.w3.org/2000/svg">
<g id="Group 168">
<g id="Group 167">
<path id="Vector" d="M2 2H22" stroke="white" stroke-width="3" stroke-linecap="round"/>
<path id="Vector_2" fill-rule="evenodd" clip-rule="evenodd" d="M19.7778 2H4.22229V18.4444C4.22229 19.689 4.22229 20.3113 4.4645 20.7867C4.67755 21.2048 5.0175 21.5448 5.43565 21.7578C5.911 22 6.53329 22 7.77785 22H12.8445C12.9378 22 12.9845 22 13.0202 21.9819C13.0515 21.9659 13.0771 21.9403 13.0931 21.909C13.1112 21.8733 13.1112 21.8267 13.1112 21.7333V18.8889C13.1112 17.6443 13.1112 17.022 13.3534 16.5467C13.5664 16.1286 13.9064 15.7886 14.3245 15.5756C14.7998 15.3333 15.4222 15.3333 16.6667 15.3333H19.5112C19.6045 15.3333 19.6512 15.3333 19.6868 15.3152C19.7182 15.2992 19.7437 15.2737 19.7597 15.2423C19.7778 15.2067 19.7778 15.16 19.7778 15.0667V2ZM10.889 13.1111V9.1269L9.45241 10.5634C9.01849 10.9973 8.31498 10.9973 7.88106 10.5634C7.44714 10.1296 7.44714 9.42602 7.88106 8.9921L11.0965 5.77662C11.1171 5.75612 11.1381 5.73647 11.1596 5.71766C11.3633 5.48226 11.6643 5.33333 12.0001 5.33333C12.3358 5.33333 12.6368 5.48226 12.8405 5.71766C12.8621 5.73647 12.8831 5.75612 12.9036 5.77662L16.1191 8.9921C16.553 9.42602 16.553 10.1296 16.1191 10.5634C15.6852 10.9973 14.9816 10.9973 14.5477 10.5634L13.1112 9.1269V13.1111C13.1112 13.7248 12.6137 14.2222 12.0001 14.2222C11.3864 14.2222 10.889 13.7248 10.889 13.1111Z" fill="white"/>
</g>
<path id="Vector_3" d="M15.6179 21.7156L19.4933 17.8402C19.5983 17.7352 19.5239 17.5557 19.3755 17.5557H15.8889C15.5822 17.5557 15.3334 17.8044 15.3334 18.1112V21.5978C15.3334 21.7462 15.5129 21.8206 15.6179 21.7156Z" fill="white"/>
</g>
</svg>
