<svg width="22" height="30" viewBox="0 0 22 30" fill="none" xmlns="http://www.w3.org/2000/svg">
<path id="Vector" d="M10.9975 27.9999L10.9975 12.3268M16.9392 2L16.9392 5.6591M10.9975 3.46364L10.9975 5.6591M5.05577 4.19546L5.05577 5.6591M10.2702 12.1892L5.87484 10.8843C4.21086 10.3903 3.37887 10.1433 2.88214 10.3535C2.45077 10.5359 2.1323 10.9085 2.02327 11.3584C1.8976 11.8765 2.28619 12.6423 3.06336 14.1738L8.87169 25.6199C9.55588 26.9682 9.89797 27.6425 10.361 27.8588C10.7638 28.0471 11.2311 28.0471 11.634 27.8588C12.097 27.6425 12.4391 26.9682 13.1233 25.6199L18.9394 14.1582C19.7145 12.6308 20.102 11.8672 19.9769 11.3496C19.8682 10.9001 19.5506 10.5276 19.12 10.3446C18.6241 10.1339 17.7939 10.3783 16.1334 10.867L11.6361 12.1907C11.3821 12.2655 11.2551 12.3028 11.1257 12.3176C11.0109 12.3308 10.895 12.3307 10.7802 12.3172C10.6508 12.3021 10.5239 12.2645 10.2702 12.1892Z" stroke="white" stroke-width="2.5" stroke-linecap="round" stroke-linejoin="round"/>
</svg>
