<svg width="22" height="30" viewBox="0 0 22 30" fill="none" xmlns="http://www.w3.org/2000/svg">
<path id="Vector" d="M11.0025 2.00007L11.0025 17.6732M5.06084 28L5.06084 24.3409M11.0025 26.5364L11.0025 24.3409M16.9442 25.8045L16.9442 24.3409M11.7298 17.8108L16.1252 19.1157C17.7891 19.6097 18.6211 19.8567 19.1179 19.6465C19.5492 19.4641 19.8677 19.0915 19.9767 18.6416C20.1024 18.1235 19.7138 17.3577 18.9366 15.8262L13.1283 4.3801C12.4441 3.03179 12.102 2.35749 11.639 2.14117C11.2362 1.95294 10.7689 1.95294 10.366 2.14117C9.903 2.35749 9.5609 3.03179 8.87672 4.3801L3.06055 15.8418C2.28554 17.3692 1.89804 18.1328 2.02313 18.6504C2.13176 19.0999 2.44938 19.4724 2.87995 19.6554C3.37586 19.8661 4.2061 19.6217 5.86658 19.133L10.3639 17.8093C10.6179 17.7345 10.7449 17.6972 10.8743 17.6824C10.9891 17.6692 11.105 17.6693 11.2198 17.6828C11.3492 17.6979 11.4761 17.7355 11.7298 17.8108Z" stroke="white" stroke-width="2.5" stroke-linecap="round" stroke-linejoin="round"/>
</svg>
