<svg width="254" height="188" viewBox="0 0 254 188" fill="none" xmlns="http://www.w3.org/2000/svg">
<path opacity="0.15" d="M42.3306 -42.355C40.9112 -39.8948 40.9112 -36.9527 42.3052 -34.4671L133.119 122.909L123.234 140.079L14.1461 -49C8.97559 -38.094 -6.05443 -21.9126 2.66451 -9.28197C8.11384 0.102242 114.313 184.286 116.416 187.837C119.179 193.011 127.239 193.011 130.027 187.837L221.702 28.8636H241.472L144.55 196.866C156.539 195.953 178.082 200.874 184.622 186.975L286.182 10.8814C289.325 5.96098 285.295 -1.1152 279.44 -0.9123H96.0382L87.0405 -16.485H293C286.283 -26.4272 279.643 -47.5544 264.435 -46.2609H49.0979C46.2592 -46.2609 43.7499 -44.8152 42.3052 -42.355H42.3306ZM150.303 93.1327L113.223 28.8889H187.359L150.303 93.1327Z" fill="#1277DD"/>
</svg>
