<svg width="25" height="21" viewBox="0 0 25 21" fill="none" xmlns="http://www.w3.org/2000/svg">
<path d="M3.61182 0.566602C3.49072 0.776375 3.49072 1.02724 3.60966 1.23918L11.3583 14.6581L10.5149 16.1222L1.20701 0C0.765836 0.929921 -0.51659 2.30966 0.227347 3.38664C0.692307 4.18681 9.75363 19.8917 9.93313 20.1944C10.1688 20.6356 10.8566 20.6356 11.0944 20.1944L18.9166 6.6392H20.6034L12.3336 20.9643C13.3565 20.8865 15.1947 21.306 15.7527 20.1209L24.4183 5.10591C24.6864 4.68637 24.3426 4.083 23.843 4.1003H8.19439L7.42667 2.77246H25C24.4269 1.92472 23.8603 0.123266 22.5627 0.233559H4.18924C3.94703 0.233559 3.73293 0.356829 3.60966 0.566602H3.61182ZM12.8245 12.1192L9.66063 6.64136H15.9863L12.8245 12.1192Z" fill="#1277DD"/>
</svg>
